<svg width="400" height="400" viewBox="0 0 400 400" xmlns="http://www.w3.org/2000/svg">
  <rect width="400" height="400" fill="#f3f4f6"/>
  <path d="M80 180h100a20 20 0 0020-20v-10a10 10 0 00-10-10H90a10 10 0 00-10 10v10a20 20 0 000 20zM220 180h100a20 20 0 0020-20v-10a10 10 0 00-10-10H230a10 10 0 00-10 10v10a20 20 0 000 20z" fill="#1f2937" opacity="0.8"/>
  <path d="M180 150q20-20 40 0" stroke="#1f2937" stroke-width="4" fill="none"/>
  <text x="50%" y="50%" dominant-baseline="middle" text-anchor="middle" font-family="sans-serif" font-size="24" fill="#6b7280">Sunglasses</text>
</svg>
